<svg width="936" height="678" viewBox="0 0 936 678" fill="none" xmlns="http://www.w3.org/2000/svg">
  <defs>
    <linearGradient id="bg" x1="468" y1="0" x2="468" y2="678" gradientUnits="userSpaceOnUse">
      <stop stop-color="#F6F7FB"/>
      <stop offset="1" stop-color="#EAF1FC"/>
    </linearGradient>
    <linearGradient id="error" x1="101" y1="125" x2="472" y2="125" gradientUnits="userSpaceOnUse">
      <stop stop-color="#CD293A"/>
      <stop offset="1" stop-color="#F15052"/>
    </linearGradient>
    <linearGradient id="warn" x1="125" y1="226" x2="454" y2="226" gradientUnits="userSpaceOnUse">
      <stop stop-color="#EDEAE1"/>
      <stop offset="1" stop-color="#FFFFFF"/>
    </linearGradient>
    <linearGradient id="fail" x1="92" y1="320" x2="448" y2="320" gradientUnits="userSpaceOnUse">
      <stop stop-color="#CC2A3C"/>
      <stop offset="1" stop-color="#F04B4F"/>
    </linearGradient>
    <linearGradient id="light" x1="130" y1="414" x2="461" y2="414" gradientUnits="userSpaceOnUse">
      <stop stop-color="#EFF4FF"/>
      <stop offset="1" stop-color="#FFFFFF"/>
    </linearGradient>
    <filter id="blur" x="0" y="0" width="936" height="678" filterUnits="userSpaceOnUse" color-interpolation-filters="sRGB">
      <feGaussianBlur stdDeviation="34"/>
    </filter>
    <filter id="shadow" x="355" y="118" width="511" height="445" filterUnits="userSpaceOnUse" color-interpolation-filters="sRGB">
      <feDropShadow dx="0" dy="18" stdDeviation="16" flood-color="#3B5A84" flood-opacity="0.24"/>
    </filter>
  </defs>

  <rect width="936" height="678" fill="url(#bg)"/>

  <g opacity="0.34" filter="url(#blur)">
    <rect x="88" y="66" width="510" height="130" rx="16" fill="#9BAFD2"/>
    <rect x="113" y="515" width="540" height="90" rx="14" fill="#A0B5D8"/>
  </g>

  <g>
    <rect x="101" y="93" width="371" height="65" rx="10" fill="url(#error)"/>
    <text x="172" y="136" font-family="Inter, Arial, sans-serif" font-size="53" font-weight="700" fill="white">404 Not Found</text>

    <rect x="125" y="192" width="329" height="68" rx="9" fill="url(#warn)"/>
    <text x="193" y="238" font-family="Inter, Arial, sans-serif" font-size="49" font-weight="600" fill="#293240">No Stock</text>

    <rect x="92" y="286" width="356" height="68" rx="9" fill="url(#fail)"/>
    <text x="166" y="332" font-family="Inter, Arial, sans-serif" font-size="43" font-weight="700" fill="white">Payment Failed</text>

    <rect x="130" y="382" width="331" height="64" rx="8" fill="url(#light)"/>
    <text x="195" y="424" font-family="Inter, Arial, sans-serif" font-size="38" font-weight="600" fill="#3A5479">Только после регистрации</text>
  </g>

  <g filter="url(#shadow)">
    <rect x="391" y="146" width="439" height="381" rx="16" fill="url(#light)" stroke="#D5DEED"/>
    <rect x="391" y="146" width="439" height="36" rx="16" fill="#F6F7FA"/>
    <circle cx="413" cy="164" r="8" fill="#ED5E5F"/>
    <circle cx="438" cy="164" r="8" fill="#F3BE4D"/>
    <circle cx="463" cy="164" r="8" fill="#5BC766"/>

    <g font-family="Inter, Arial, sans-serif" font-size="22" fill="#1C3555">
      <text x="434" y="230">✓ Гео: <tspan font-weight="800">Казахстан</tspan></text>
      <line x1="418" y1="245" x2="794" y2="245" stroke="#D7DFEE"/>
      <text x="434" y="279">✓ Тип: <tspan font-weight="800">Mobile</tspan></text>
      <line x1="418" y1="294" x2="794" y2="294" stroke="#D7DFEE"/>
      <text x="434" y="328">✓ Оплата: <tspan font-weight="800">Crypto</tspan></text>
      <line x1="418" y1="343" x2="794" y2="343" stroke="#D7DFEE"/>
      <text x="434" y="377">✓ Цена: <tspan font-weight="800">от $15</tspan></text>
      <line x1="418" y1="392" x2="794" y2="392" stroke="#D7DFEE"/>
      <text x="434" y="426">✓ Промокод: <tspan font-weight="800">SAVE15</tspan></text>
      <line x1="418" y1="441" x2="794" y2="441" stroke="#D7DFEE"/>
      <text x="434" y="475">✓ Идеально подходит под <tspan font-weight="800">Facebook</tspan></text>
    </g>
  </g>
</svg>
